{
  "accessors": [
    {
      "bufferView": 2,
      "componentType": 5126,
      "count": 65532,
      "max": [
        265.17584228515625,
        267.87152099609375,
        115.04747009277344
      ],
      "min": [
        -123.69096374511719,
        -254.94284057617188,
        7.0193624496459961
      ],
      "type": "VEC3"
    },
    {
      "bufferView": 2,
      "byteOffset": 786384,
      "componentType": 5126,
      "count": 65532,
      "max": [
        0.99999994039535522,
        1,
        1
      ],
      "min": [
        -0.99999988079071045,
        -1,
        -1
      ],
      "type": "VEC3"
    },
    {
      "bufferView": 3,
      "componentType": 5126,
      "count": 65532,
      "max": [
        1,
        0.99846577644348145,
        1,
        1
      ],
      "min": [
        -1,
        -0.99909961223602295,
        -1,
        -1
      ],
      "type": "VEC4"
    },
    {
      "bufferView": 1,
      "componentType": 5126,
      "count": 65532,
      "max": [
        0.98542594909667969,
        0.9966619610786438
      ],
      "min": [
        0.0033370263408869505,
        0.0041484832763671875
      ],
      "type": "VEC2"
    },
    {
      "bufferView": 0,
      "componentType": 5125,
      "count": 290289,
      "max": [
        65531
      ],
      "min": [
        0
      ],
      "type": "SCALAR"
    },
    {
      "bufferView": 2,
      "byteOffset": 1572768,
      "componentType": 5126,
      "count": 65532,
      "max": [
        55.089969635009766,
        170.55476379394531,
        154.118896484375
      ],
      "min": [
        -268.09091186523438,
        -249.26766967773438,
        41.118896484375
      ],
      "type": "VEC3"
    },
    {
      "bufferView": 2,
      "byteOffset": 2359152,
      "componentType": 5126,
      "count": 65532,
      "max": [
        0.99999988079071045,
        1,
        1
      ],
      "min": [
        -0.99999970197677612,
        -1,
        -1
      ],
      "type": "VEC3"
    },
    {
      "bufferView": 3,
      "byteOffset": 1048512,
      "componentType": 5126,
      "count": 65532,
      "max": [
        1,
        0.99839448928833008,
        1,
        1
      ],
      "min": [
        -1,
        -0.99942797422409058,
        -1,
        -1
      ],
      "type": "VEC4"
    },
    {
      "bufferView": 1,
      "byteOffset": 524256,
      "componentType": 5126,
      "count": 65532,
      "max": [
        0.98967653512954712,
        0.99659538269042969
      ],
      "min": [
        0.0033370263408869505,
        0.0037629604339599609
      ],
      "type": "VEC2"
    },
    {
      "bufferView": 0,
      "byteOffset": 1161156,
      "componentType": 5125,
      "count": 269964,
      "max": [
        65531
      ],
      "min": [
        0
      ],
      "type": "SCALAR"
    },
    {
      "bufferView": 2,
      "byteOffset": 3145536,
      "componentType": 5126,
      "count": 65533,
      "max": [
        56.218353271484375,
        47.218330383300781,
        153.368896484375
      ],
      "min": [
        -55.6746826171875,
        -62.500995635986328,
        5.4696564674377441
      ],
      "type": "VEC3"
    },
    {
      "bufferView": 2,
      "byteOffset": 3931932,
      "componentType": 5126,
      "count": 65533,
      "max": [
        0.99998432397842407,
        0.99999982118606567,
        1
      ],
      "min": [
        -0.99999958276748657,
        -1,
        -1
      ],
      "type": "VEC3"
    },
    {
      "bufferView": 3,
      "byteOffset": 2097024,
      "componentType": 5126,
      "count": 65533,
      "max": [
        1,
        0.99993085861206055,
        1,
        1
      ],
      "min": [
        -1,
        -0.99990975856781006,
        -1,
        -1
      ],
      "type": "VEC4"
    },
    {
      "bufferView": 1,
      "byteOffset": 1048512,
      "componentType": 5126,
      "count": 65533,
      "max": [
        0.94327634572982788,
        0.99659538269042969
      ],
      "min": [
        0.0033370263408869505,
        0.056318879127502441
      ],
      "type": "VEC2"
    },
    {
      "bufferView": 0,
      "byteOffset": 2241012,
      "componentType": 5125,
      "count": 225654,
      "max": [
        65532
      ],
      "min": [
        0
      ],
      "type": "SCALAR"
    },
    {
      "bufferView": 2,
      "byteOffset": 4718328,
      "componentType": 5126,
      "count": 65532,
      "max": [
        156.63922119140625,
        166.0289306640625,
        154.118896484375
      ],
      "min": [
        -204.72328186035156,
        -242.9580078125,
        5.069847583770752
      ],
      "type": "VEC3"
    },
    {
      "bufferView": 2,
      "byteOffset": 5504712,
      "componentType": 5126,
      "count": 65532,
      "max": [
        0.99995356798171997,
        0.9999966025352478,
        1
      ],
      "min": [
        -0.99988394975662231,
        -0.9999726414680481,
        -1
      ],
      "type": "VEC3"
    },
    {
      "bufferView": 3,
      "byteOffset": 3145552,
      "componentType": 5126,
      "count": 65532,
      "max": [
        1,
        0.99979418516159058,
        1,
        1
      ],
      "min": [
        -1,
        -0.99938005208969116,
        -1,
        -1
      ],
      "type": "VEC4"
    },
    {
      "bufferView": 1,
      "byteOffset": 1572776,
      "componentType": 5126,
      "count": 65532,
      "max": [
        0.93829017877578735,
        0.9966619610786438
      ],
      "min": [
        0.0033370263408869505,
        0.05258631706237793
      ],
      "type": "VEC2"
    },
    {
      "bufferView": 0,
      "byteOffset": 3143628,
      "componentType": 5125,
      "count": 233529,
      "max": [
        65531
      ],
      "min": [
        0
      ],
      "type": "SCALAR"
    },
    {
      "bufferView": 2,
      "byteOffset": 6291096,
      "componentType": 5126,
      "count": 65532,
      "max": [
        258.27301025390625,
        260.59072875976562,
        120.17597198486328
      ],
      "min": [
        -261.06979370117188,
        -248.50163269042969,
        54.532085418701172
      ],
      "type": "VEC3"
    },
    {
      "bufferView": 2,
      "byteOffset": 7077480,
      "componentType": 5126,
      "count": 65532,
      "max": [
        0.99999344348907471,
        0.99997586011886597,
        0.99986672401428223
      ],
      "min": [
        -0.9999585747718811,
        -0.99995201826095581,
        -0.99998736381530762
      ],
      "type": "VEC3"
    },
    {
      "bufferView": 3,
      "byteOffset": 4194064,
      "componentType": 5126,
      "count": 65532,
      "max": [
        0.99999988079071045,
        0.99929386377334595,
        1,
        1
      ],
      "min": [
        -0.99999761581420898,
        -0.99652153253555298,
        -1,
        -1
      ],
      "type": "VEC4"
    },
    {
      "bufferView": 1,
      "byteOffset": 2097032,
      "componentType": 5126,
      "count": 65532,
      "max": [
        0.93881332874298096,
        0.9966619610786438
      ],
      "min": [
        0.0033370263408869505,
        0.063547372817993164
      ],
      "type": "VEC2"
    },
    {
      "bufferView": 0,
      "byteOffset": 4077744,
      "componentType": 5125,
      "count": 272988,
      "max": [
        65531
      ],
      "min": [
        0
      ],
      "type": "SCALAR"
    },
    {
      "bufferView": 2,
      "byteOffset": 7863864,
      "componentType": 5126,
      "count": 65532,
      "max": [
        265.0269775390625,
        267.7015380859375,
        155.118896484375
      ],
      "min": [
        -267.86553955078125,
        -254.72732543945312,
        0.34309625625610352
      ],
      "type": "VEC3"
    },
    {
      "bufferView": 2,
      "byteOffset": 8650248,
      "componentType": 5126,
      "count": 65532,
      "max": [
        0.99999970197677612,
        1,
        1
      ],
      "min": [
        -0.99999904632568359,
        -1,
        -1
      ],
      "type": "VEC3"
    },
    {
      "bufferView": 3,
      "byteOffset": 5242576,
      "componentType": 5126,
      "count": 65532,
      "max": [
        1,
        1,
        1,
        1
      ],
      "min": [
        -1,
        -1,
        -1,
        -1
      ],
      "type": "VEC4"
    },
    {
      "bufferView": 1,
      "byteOffset": 2621288,
      "componentType": 5126,
      "count": 65532,
      "max": [
        0.99665158987045288,
        0.99659538269042969
      ],
      "min": [
        0.0033370263408869505,
        0.0033380985260009766
      ],
      "type": "VEC2"
    },
    {
      "bufferView": 0,
      "byteOffset": 5169696,
      "componentType": 5125,
      "count": 204396,
      "max": [
        65531
      ],
      "min": [
        0
      ],
      "type": "SCALAR"
    },
    {
      "bufferView": 2,
      "byteOffset": 9436632,
      "componentType": 5126,
      "count": 41249,
      "max": [
        257.95791625976562,
        260.53628540039062,
        155.118896484375
      ],
      "min": [
        -261.01593017578125,
        -248.4354248046875,
        0.34309905767440796
      ],
      "type": "VEC3"
    },
    {
      "bufferView": 2,
      "byteOffset": 9931620,
      "componentType": 5126,
      "count": 41249,
      "max": [
        0.99999874830245972,
        0.9999997615814209,
        1
      ],
      "min": [
        -0.99999868869781494,
        -0.99999862909317017,
        -1
      ],
      "type": "VEC3"
    },
    {
      "bufferView": 3,
      "byteOffset": 6291088,
      "componentType": 5126,
      "count": 41249,
      "max": [
        1,
        0.99996423721313477,
        1,
        1
      ],
      "min": [
        -1,
        -0.99985837936401367,
        -1,
        -1
      ],
      "type": "VEC4"
    },
    {
      "bufferView": 1,
      "byteOffset": 3145544,
      "componentType": 5126,
      "count": 41249,
      "max": [
        0.93814051151275635,
        0.99659538269042969
      ],
      "min": [
        0.0033370263408869505,
        0.036740899085998535
      ],
      "type": "VEC2"
    },
    {
      "bufferView": 0,
      "byteOffset": 5987280,
      "componentType": 5125,
      "count": 120276,
      "max": [
        41248
      ],
      "min": [
        0
      ],
      "type": "SCALAR"
    }
  ],
  "asset": {
    "extras": {
      "author": "fffiloni (https://sketchfab.com/fffiloni)",
      "license": "CC-BY-4.0 (http://creativecommons.org/licenses/by/4.0/)",
      "source": "https://sketchfab.com/models/292bacbe66954ab394f9ad532ef97dbf",
      "title": "Zbibli_colo_grouped.c4d"
    },
    "generator": "Sketchfab-3.38.1",
    "version": "2.0"
  },
  "bufferViews": [
    {
      "buffer": 0,
      "byteLength": 6468384,
      "byteOffset": 0,
      "name": "floatBufferViews",
      "target": 34963
    },
    {
      "buffer": 0,
      "byteLength": 3475536,
      "byteOffset": 6468384,
      "byteStride": 8,
      "name": "floatBufferViews",
      "target": 34962
    },
    {
      "buffer": 0,
      "byteLength": 10426608,
      "byteOffset": 9943920,
      "byteStride": 12,
      "name": "floatBufferViews",
      "target": 34962
    },
    {
      "buffer": 0,
      "byteLength": 6951072,
      "byteOffset": 20370528,
      "byteStride": 16,
      "name": "floatBufferViews",
      "target": 34962
    }
  ],
  "buffers": [
    {
      "byteLength": 27321600,
      "uri": "scene.bin"
    }
  ],
  "images": [
    {
      "uri": "textures/Brep_baseColor.png"
    }
  ],
  "materials": [
    {
      "doubleSided": true,
      "emissiveFactor": [
        0,
        0,
        0
      ],
      "name": "Brep",
      "pbrMetallicRoughness": {
        "baseColorFactor": [
          1,
          1,
          1,
          1
        ],
        "baseColorTexture": {
          "index": 0,
          "texCoord": 0
        },
        "metallicFactor": 0,
        "roughnessFactor": 0.95243171540000005
      }
    }
  ],
  "meshes": [
    {
      "name": "Brep_Brep_0",
      "primitives": [
        {
          "attributes": {
            "NORMAL": 1,
            "POSITION": 0,
            "TANGENT": 2,
            "TEXCOORD_0": 3
          },
          "indices": 4,
          "material": 0,
          "mode": 4
        }
      ]
    },
    {
      "name": "Brep_Brep_0",
      "primitives": [
        {
          "attributes": {
            "NORMAL": 6,
            "POSITION": 5,
            "TANGENT": 7,
            "TEXCOORD_0": 8
          },
          "indices": 9,
          "material": 0,
          "mode": 4
        }
      ]
    },
    {
      "name": "Brep_Brep_0",
      "primitives": [
        {
          "attributes": {
            "NORMAL": 11,
            "POSITION": 10,
            "TANGENT": 12,
            "TEXCOORD_0": 13
          },
          "indices": 14,
          "material": 0,
          "mode": 4
        }
      ]
    },
    {
      "name": "Brep_Brep_0",
      "primitives": [
        {
          "attributes": {
            "NORMAL": 16,
            "POSITION": 15,
            "TANGENT": 17,
            "TEXCOORD_0": 18
          },
          "indices": 19,
          "material": 0,
          "mode": 4
        }
      ]
    },
    {
      "name": "Brep_Brep_0",
      "primitives": [
        {
          "attributes": {
            "NORMAL": 21,
            "POSITION": 20,
            "TANGENT": 22,
            "TEXCOORD_0": 23
          },
          "indices": 24,
          "material": 0,
          "mode": 4
        }
      ]
    },
    {
      "name": "Brep_Brep_0",
      "primitives": [
        {
          "attributes": {
            "NORMAL": 26,
            "POSITION": 25,
            "TANGENT": 27,
            "TEXCOORD_0": 28
          },
          "indices": 29,
          "material": 0,
          "mode": 4
        }
      ]
    },
    {
      "name": "Brep_Brep_0",
      "primitives": [
        {
          "attributes": {
            "NORMAL": 31,
            "POSITION": 30,
            "TANGENT": 32,
            "TEXCOORD_0": 33
          },
          "indices": 34,
          "material": 0,
          "mode": 4
        }
      ]
    }
  ],
  "nodes": [
    {
      "children": [
        1
      ],
      "name": "RootNode (gltf orientation matrix)",
      "rotation": [
        -0.70710678118654746,
        -0,
        -0,
        0.70710678118654757
      ]
    },
    {
      "children": [
        2
      ],
      "name": "RootNode (model correction matrix)"
    },
    {
      "children": [
        3
      ],
      "matrix": [
        1,
        0,
        0,
        0,
        0,
        0,
        1,
        0,
        0,
        -1,
        0,
        0,
        0,
        0,
        0,
        1
      ],
      "name": "Zbibli_colo_grouped.c4d.fbx"
    },
    {
      "children": [
        4
      ],
      "name": "RootNode"
    },
    {
      "children": [
        5,
        6,
        7,
        8,
        9,
        10,
        11
      ],
      "matrix": [
        0.012862361168608921,
        -1.1102229998097382e-18,
        0.015315340260238038,
        0,
        0.015315340260238036,
        8.8817839984779053e-18,
        -0.012862361168608923,
        0,
        -6.661337998858429e-18,
        0.019999999552965164,
        6.661337998858429e-18,
        0,
        0.32005426287651062,
        -0.32590535283088684,
        0.046495072543621063,
        1
      ],
      "name": "Brep"
    },
    {
      "mesh": 0,
      "name": "Brep_Brep_0"
    },
    {
      "mesh": 1,
      "name": "Brep_Brep_0"
    },
    {
      "mesh": 2,
      "name": "Brep_Brep_0"
    },
    {
      "mesh": 3,
      "name": "Brep_Brep_0"
    },
    {
      "mesh": 4,
      "name": "Brep_Brep_0"
    },
    {
      "mesh": 5,
      "name": "Brep_Brep_0"
    },
    {
      "mesh": 6,
      "name": "Brep_Brep_0"
    }
  ],
  "samplers": [
    {
      "magFilter": 9729,
      "minFilter": 9987,
      "wrapS": 10497,
      "wrapT": 10497
    }
  ],
  "scene": 0,
  "scenes": [
    {
      "name": "OSG_Scene",
      "nodes": [
        0
      ]
    }
  ],
  "textures": [
    {
      "sampler": 0,
      "source": 0
    }
  ]
}

