# Blender v2.78 (sub 0) OBJ File: 'CHAHIN_BANANA.blend'
# www.blender.org
mtllib CHAHIN_BANANA.mtl
o Cube.006_Cube.008
v -0.105806 0.161153 0.247210
v -0.105806 0.161177 -0.207382
v -0.105806 -0.050461 0.304595
v -0.105806 -0.050431 -0.264790
v 0.105805 0.161153 0.247210
v 0.105805 0.161177 -0.207382
v 0.105805 -0.050461 0.304595
v 0.105805 -0.050431 -0.264790
v -0.074928 0.070435 0.501149
v -0.074928 0.220290 0.501157
v -0.074928 0.220341 -0.461323
v -0.074928 0.070486 -0.461331
v 0.074927 0.070435 0.501149
v 0.074927 0.070486 -0.461331
v 0.074927 0.220290 0.501157
v 0.074927 0.220341 -0.461323
v -0.033662 0.225930 0.635697
v -0.033662 0.293253 0.635701
v -0.022240 0.275694 -0.595860
v -0.022240 0.231215 -0.595862
v 0.033661 0.225930 0.635697
v 0.022239 0.231215 -0.595862
v 0.033661 0.293253 0.635701
v 0.022239 0.275694 -0.595860
v -0.026128 0.255402 0.662012
v -0.026128 0.307659 0.662015
v 0.026128 0.255402 0.662012
v 0.026128 0.307659 0.662015
v -0.033206 0.349546 -0.785842
v -0.033206 0.283135 -0.785845
v 0.033205 0.283135 -0.785845
v 0.033205 0.349546 -0.785842
v -0.105806 0.145789 0.019913
v -0.105806 -0.065822 0.019902
v 0.105805 -0.065822 0.019902
v 0.105805 0.145789 0.019913
v -0.142169 0.055346 0.275902
v -0.142169 0.055373 -0.236086
v 0.142169 0.055346 0.275902
v 0.142168 0.055373 -0.236086
v -0.100679 0.145362 0.501153
v -0.100679 0.145413 -0.461327
v 0.100679 0.145362 0.501153
v 0.100678 0.145413 -0.461327
v -0.045230 0.259591 0.635699
v -0.029883 0.253455 -0.595861
v 0.045230 0.259591 0.635699
v 0.029883 0.253455 -0.595861
v -0.035108 0.281531 0.662014
v 0.035108 0.281531 0.662014
v -0.044618 0.316340 -0.785843
v 0.044617 0.316340 -0.785843
v 0.142169 0.039983 0.019907
v -0.142169 0.039983 0.019907
v -0.000000 -0.074713 0.304594
v -0.000000 -0.074682 -0.264791
v -0.000000 0.185827 0.247211
v -0.000000 0.185851 -0.207380
v -0.000000 0.046183 0.501148
v -0.000000 0.046235 -0.461332
v -0.000000 0.244964 0.501159
v -0.000000 0.245016 -0.461322
v -0.000000 0.201679 0.635696
v -0.000000 0.206964 -0.595863
v -0.000000 0.317927 0.635702
v -0.000000 0.284105 -0.597792
v -0.000000 0.231151 0.662011
v -0.000000 0.332333 0.662016
v -0.000000 0.258884 -0.785847
v -0.000000 0.367219 -0.783908
v -0.000000 0.170463 0.019914
v -0.000000 -0.090073 0.019901
v -0.000000 0.316340 -0.785843
v -0.000000 0.281531 0.662014
vt 0.4587 0.7469
vt 0.4612 0.7877
vt 0.4042 0.7905
vt 0.4022 0.7452
vt 0.7372 0.7193
vt 0.7383 0.6661
vt 0.7930 0.6660
vt 0.7919 0.7192
vt 0.2516 0.7814
vt 0.2541 0.7335
vt 0.3112 0.7377
vt 0.3081 0.7801
vt 0.6331 0.7384
vt 0.6340 0.7809
vt 0.5794 0.7806
vt 0.5785 0.7381
vt 0.5082 0.7764
vt 0.5278 0.8122
vt 0.4949 0.8169
vt 0.7383 0.7721
vt 0.7930 0.7720
vt 0.7859 0.8072
vt 0.7467 0.8073
vt 0.7503 0.8310
vt 0.7822 0.8420
vt 0.7307 0.8733
vt 0.7240 0.8663
vt 0.6858 0.8452
vt 0.7105 0.8306
vt 0.7094 0.8699
vt 0.7021 0.8743
vt 0.6858 0.7799
vt 0.6736 0.8287
vt 0.6373 0.8296
vt 0.4710 0.7055
vt 0.4151 0.6991
vt 0.4734 0.6611
vt 0.5134 0.6624
vt 0.2638 0.8289
vt 0.3198 0.8223
vt 0.3580 0.8689
vt 0.3179 0.8697
vt 0.6869 0.6657
vt 0.7108 0.6278
vt 0.7467 0.6282
vt 0.6340 0.6968
vt 0.5794 0.6965
vt 0.5983 0.6510
vt 0.6373 0.6514
vt 0.2090 0.7293
vt 0.2681 0.6914
vt 0.2997 0.6906
vt 0.1755 0.2458
vt 0.1422 0.1691
vt 0.2912 0.2136
vt 0.3171 0.2731
vt 0.6395 0.8559
vt 0.6502 0.8552
vt 0.6599 0.8924
vt 0.6442 0.8926
vt 0.5448 0.8263
vt 0.5350 0.8278
vt 0.6231 0.6280
vt 0.6414 0.6286
vt 0.4022 0.8931
vt 0.3842 0.8934
vt 0.7760 0.8304
vt 0.7575 0.8306
vt 0.5458 0.6311
vt 0.5638 0.6317
vt 0.6218 0.1869
vt 0.4920 0.2060
vt 0.5252 0.1473
vt 0.6218 0.0822
vt 0.8711 0.1071
vt 0.8496 0.1996
vt 0.7517 0.1621
vt 0.7621 0.0822
vt 0.8711 0.2685
vt 0.8496 0.3374
vt 0.7517 0.3749
vt 0.7684 0.3214
vt 0.3640 0.2731
vt 0.3171 0.1861
vt 0.4661 0.1417
vt 0.4920 0.2192
vt 0.4582 0.8703
vt 0.4781 0.8654
vt 0.4809 0.8735
vt 0.4703 0.8808
vt 0.3604 0.6642
vt 0.3511 0.6645
vt 0.3705 0.6285
vt 0.3844 0.6282
vt 0.4236 0.8585
vt 0.4331 0.8588
vt 0.4355 0.8947
vt 0.4205 0.8945
vt 0.5785 0.8564
vt 0.5640 0.8585
vt 0.5169 0.7034
vt 0.5050 0.7402
vt 0.2198 0.8353
vt 0.2070 0.7825
vt 0.5232 0.8274
vt 0.5463 0.8579
vt 0.3723 0.6640
vt 0.4022 0.6278
vt 0.4445 0.8585
vt 0.4651 0.8599
vt 0.3504 0.1094
vt 0.4920 0.0822
vt 0.6218 0.2907
vt 0.5252 0.2550
vt 0.5462 0.6577
vt 0.5785 0.6296
vt 0.2864 0.8706
vt 0.3700 0.8938
vt 0.7822 0.8605
vt 0.7307 0.8788
vt 0.8711 0.2685
vt 0.7684 0.2156
vt 0.3397 0.6897
vt 0.4549 0.8157
vt 0.6551 0.1179
vt 0.7517 0.0822
vt 0.7517 0.1860
vt 0.6218 0.1668
vt 0.4355 0.8671
vt 0.4383 0.8752
vt 0.6869 0.7717
vt 0.6858 0.7189
vt 0.6858 0.6958
vt 0.6850 0.7374
vt 0.4108 0.8588
vt 0.4022 0.8947
vt 0.4513 0.8808
vt 0.1891 0.0822
vt 0.3171 0.1360
vt 0.8711 0.4299
vt 0.7621 0.4548
vt 0.7517 0.2907
vt 0.6551 0.2256
vt 0.5983 0.8291
vt 0.6279 0.8554
vt 0.4512 0.6530
vt 0.5294 0.6278
vt 0.6736 0.6505
vt 0.6570 0.6278
vt 0.6265 0.8926
vt 0.7859 0.6280
vt 0.7108 0.8070
vn -0.9463 -0.3227 -0.0184
vn 0.2231 -0.9734 -0.0526
vn 0.9464 0.3225 0.0205
vn -0.2266 0.9718 0.0658
vn -0.9430 0.3304 -0.0395
vn 0.2208 -0.8229 0.5235
vn -0.2921 -0.5852 -0.7564
vn 0.7534 -0.2589 -0.6044
vn 0.2579 0.9443 0.2043
vn -0.9178 -0.2691 0.2920
vn 0.9430 0.3304 0.0396
vn -0.2208 -0.8229 -0.5236
vn -0.2579 0.9444 -0.2042
vn 0.9178 -0.2690 -0.2920
vn -0.7984 -0.2744 0.5359
vn 0.3966 0.8430 0.3634
vn -0.9203 0.3163 -0.2303
vn -0.3800 0.8363 -0.3952
vn 0.9396 0.3229 0.1131
vn 0.2719 -0.6088 0.7453
vn -0.7872 -0.2706 0.5541
vn 0.3067 0.9158 0.2595
vn 0.0000 -0.0001 1.0000
vn -0.6043 0.7321 -0.3143
vn 0.9417 0.3236 0.0924
vn 0.4545 -0.5603 0.6925
vn 0.0202 0.0203 -0.9996
vn 0.9452 -0.3248 -0.0342
vn -0.6472 -0.7399 -0.1835
vn -0.9306 0.3198 0.1780
vn -0.2266 0.9718 -0.0657
vn 0.9464 0.3225 -0.0205
vn 0.2231 -0.9734 0.0525
vn -0.9463 -0.3227 0.0183
vn -0.9464 0.3225 -0.0205
vn 0.9463 -0.3227 0.0183
vn -0.9452 -0.3248 -0.0342
vn 0.9306 0.3198 0.1780
vn 0.0000 0.0001 -1.0000
vn 0.7984 -0.2744 0.5359
vn -0.9396 0.3229 0.1131
vn 0.7872 -0.2706 0.5541
vn -0.7534 -0.2589 -0.6044
vn -0.9417 0.3236 0.0924
vn 0.9430 0.3304 -0.0395
vn 0.9178 -0.2691 0.2920
vn -0.9430 0.3304 0.0396
vn 0.9203 0.3163 -0.2303
vn -0.9178 -0.2690 -0.2920
vn 0.9463 -0.3227 -0.0184
vn -0.9464 0.3225 0.0205
vn -0.2231 -0.9734 0.0525
vn 0.2266 0.9718 -0.0657
vn 0.6472 -0.7399 -0.1835
vn -0.0202 0.0203 -0.9996
vn -0.4545 -0.5603 0.6925
vn 0.6043 0.7321 -0.3143
vn -0.3067 0.9158 0.2595
vn -0.2719 -0.6088 0.7453
vn 0.3800 0.8363 -0.3952
vn -0.3966 0.8430 0.3634
vn 0.2579 0.9444 -0.2042
vn 0.2208 -0.8229 -0.5236
vn -0.2579 0.9443 0.2043
vn 0.2921 -0.5852 -0.7564
vn -0.2208 -0.8229 0.5235
vn 0.2266 0.9718 0.0658
vn -0.2231 -0.9734 -0.0526
usemtl Material.050
s off
f 54/1/1 38/2/1 4/3/1 34/4/1
f 72/5/2 56/6/2 8/7/2 35/8/2
f 53/9/3 40/10/3 6/11/3 36/12/3
f 71/13/4 58/14/4 2/15/4 33/16/4
f 38/2/5 2/17/5 11/18/5 42/19/5
f 55/20/6 7/21/6 13/22/6 59/23/6
f 60/24/7 12/25/7 20/26/7 64/27/7
f 44/28/8 14/29/8 22/30/8 48/31/8
f 58/14/9 6/32/9 16/33/9 62/34/9
f 37/35/10 3/36/10 9/37/10 41/38/10
f 39/39/11 5/40/11 15/41/11 43/42/11
f 56/6/12 4/43/12 12/44/12 60/45/12
f 57/46/13 1/47/13 10/48/13 61/49/13
f 40/10/14 8/50/14 14/51/14 44/52/14
f 45/53/15 17/54/15 25/55/15 49/56/15
f 66/57/16 24/58/16 32/59/16 70/60/16
f 42/19/17 11/18/17 19/61/17 46/62/17
f 61/49/18 10/48/18 18/63/18 65/64/18
f 43/42/19 15/41/19 23/65/19 47/66/19
f 59/23/20 13/22/20 21/67/20 63/68/20
f 41/38/21 9/37/21 17/69/21 45/70/21
f 62/34/22 16/33/22 24/58/22 66/57/22
f 74/71/23 50/72/23 28/73/23 68/74/23
f 65/75/24 18/76/24 26/77/24 68/78/24
f 47/79/25 23/80/25 28/81/25 50/82/25
f 63/83/26 21/84/26 27/85/26 67/86/26
f 73/87/27 51/88/27 29/89/27 70/90/27
f 48/91/28 22/92/28 31/93/28 52/94/28
f 64/95/29 20/96/29 30/97/29 69/98/29
f 46/62/30 19/61/30 29/99/30 51/100/30
f 57/46/31 71/13/31 33/16/31 1/47/31
f 39/39/32 53/9/32 36/12/32 5/40/32
f 55/20/33 72/5/33 35/8/33 7/21/33
f 37/35/34 54/1/34 34/4/34 3/36/34
f 1/101/35 33/102/35 54/1/35 37/35/35
f 7/103/36 35/104/36 53/9/36 39/39/36
f 20/105/37 46/62/37 51/100/37 30/106/37
f 24/107/38 48/91/38 52/94/38 32/108/38
f 69/109/39 30/110/39 51/88/39 73/87/39
f 21/84/40 47/111/40 50/112/40 27/85/40
f 67/113/23 27/114/23 50/72/23 74/71/23
f 10/115/41 41/38/41 45/70/41 18/116/41
f 13/117/42 43/42/42 47/66/42 21/118/42
f 12/25/43 42/119/43 46/120/43 20/26/43
f 18/76/44 45/121/44 49/122/44 26/77/44
f 6/11/45 40/10/45 44/52/45 16/123/45
f 7/103/46 39/39/46 43/42/46 13/117/46
f 1/101/47 37/35/47 41/38/47 10/115/47
f 16/123/48 44/52/48 48/91/48 24/107/48
f 4/3/49 38/2/49 42/19/49 12/124/49
f 35/104/50 8/50/50 40/10/50 53/9/50
f 33/102/51 2/17/51 38/2/51 54/1/51
f 25/125/23 67/126/23 74/127/23 49/128/23
f 31/129/39 69/109/39 73/87/39 52/130/39
f 3/131/52 34/132/52 72/5/52 55/20/52
f 5/133/53 36/134/53 71/13/53 57/46/53
f 22/135/54 64/95/54 69/98/54 31/136/54
f 52/130/55 73/87/55 70/90/55 32/137/55
f 17/54/56 63/138/56 67/139/56 25/55/56
f 23/80/57 65/140/57 68/141/57 28/81/57
f 49/128/23 74/127/23 68/142/23 26/143/23
f 11/144/58 62/34/58 66/57/58 19/145/58
f 9/37/59 59/146/59 63/147/59 17/69/59
f 15/148/60 61/49/60 65/64/60 23/149/60
f 19/145/61 66/57/61 70/60/61 29/150/61
f 5/133/62 57/46/62 61/49/62 15/148/62
f 8/7/63 56/6/63 60/45/63 14/151/63
f 2/15/64 58/14/64 62/34/64 11/144/64
f 14/29/65 60/24/65 64/27/65 22/30/65
f 3/131/66 55/20/66 59/23/66 9/152/66
f 36/134/67 6/32/67 58/14/67 71/13/67
f 34/132/68 4/43/68 56/6/68 72/5/68
